<svg width="564" height="137" viewBox="0 0 564 137" fill="none" xmlns="http://www.w3.org/2000/svg">
<path opacity="0.2" fill-rule="evenodd" clip-rule="evenodd" d="M67.8013 32.0325C69.121 32.5103 70 33.7634 70 35.1668V58.5001H86.6667C87.96 58.5001 89.1367 59.2483 89.6853 60.4196C90.234 61.5909 90.0553 62.9739 89.2273 63.9673L55.894 103.967C54.9957 105.046 53.5183 105.445 52.1986 104.968C50.879 104.49 50 103.237 50 101.834V78.5003H33.3334C32.04 78.5003 30.8633 77.7519 30.3147 76.5806C29.7661 75.4093 29.9446 74.0266 30.7726 73.0329L64.106 33.0328C65.0043 31.9547 66.482 31.5548 67.8013 32.0325Z" fill="url(#paint0_linear_19_9638)"/>
<path fill-rule="evenodd" clip-rule="evenodd" d="M67.8013 32.0325C69.121 32.5103 70 33.7634 70 35.1668V58.5001H86.6667C87.96 58.5001 89.1367 59.2483 89.6853 60.4196C90.234 61.5909 90.0553 62.9739 89.2273 63.9673L55.894 103.967C54.9957 105.046 53.5183 105.445 52.1986 104.968C50.879 104.49 50 103.237 50 101.834V78.5003H33.3334C32.04 78.5003 30.8633 77.7519 30.3147 76.5806C29.7661 75.4093 29.9446 74.0266 30.7726 73.0329L64.106 33.0328C65.0043 31.9547 66.482 31.5548 67.8013 32.0325ZM40.4502 71.8336H53.3333C55.1743 71.8336 56.6667 73.3259 56.6667 75.1669V92.6266L79.55 65.1669H66.6667C64.8257 65.1669 63.3333 63.6743 63.3333 61.8336V44.3736L40.4502 71.8336Z" fill="url(#paint1_linear_19_9638)"/>
<g clip-path="url(#clip0_19_9638)">
<path d="M143.424 45.576C146.368 47.272 147.84 49.832 147.84 53.256C147.84 56.104 146.832 58.44 144.816 60.264C142.8 62.088 140.32 63 137.376 63H123.12V29.4H136.368C139.216 29.4 141.632 30.296 143.616 32.088C145.6 33.88 146.592 36.136 146.592 38.856C146.592 41.64 145.536 43.88 143.424 45.576ZM136.368 35.592H129.744V42.984H136.368C137.392 42.984 138.24 42.632 138.912 41.928C139.616 41.224 139.968 40.344 139.968 39.288C139.968 38.232 139.632 37.352 138.96 36.648C138.288 35.944 137.424 35.592 136.368 35.592ZM129.744 56.808H137.376C138.496 56.808 139.424 56.44 140.16 55.704C140.896 54.936 141.264 53.976 141.264 52.824C141.264 51.704 140.896 50.776 140.16 50.04C139.424 49.272 138.496 48.888 137.376 48.888H129.744V56.808ZM161.511 55.128L166.839 39H173.463L164.727 63C163.479 66.456 161.815 68.952 159.735 70.488C157.687 72.056 155.127 72.76 152.055 72.6V66.84C153.687 66.872 154.999 66.52 155.991 65.784C156.983 65.048 157.767 63.864 158.343 62.232L148.503 39H155.271L161.511 55.128ZM190.138 39V44.952H184.714V54.936C184.714 55.768 184.922 56.376 185.338 56.76C185.754 57.144 186.362 57.368 187.162 57.432C187.962 57.464 188.954 57.448 190.138 57.384V63C185.946 63.48 182.954 63.096 181.162 61.848C179.402 60.568 178.522 58.264 178.522 54.936V44.952H174.346V39H178.522V34.152L184.714 32.28V39H190.138ZM217.082 53.544H198.986C199.786 56.552 202.042 58.056 205.754 58.056C208.122 58.056 209.914 57.256 211.13 55.656L216.122 58.536C213.754 61.96 210.266 63.672 205.658 63.672C201.69 63.672 198.506 62.472 196.106 60.072C193.706 57.672 192.506 54.648 192.506 51C192.506 47.416 193.69 44.408 196.058 41.976C198.394 39.544 201.434 38.328 205.178 38.328C208.73 38.328 211.626 39.544 213.866 41.976C216.17 44.408 217.322 47.416 217.322 51C217.322 51.672 217.242 52.52 217.082 53.544ZM198.89 48.744H211.13C210.778 47.176 210.058 45.976 208.97 45.144C207.914 44.312 206.65 43.896 205.178 43.896C203.514 43.896 202.138 44.328 201.05 45.192C199.962 46.024 199.242 47.208 198.89 48.744ZM242.237 45.576C245.181 47.272 246.653 49.832 246.653 53.256C246.653 56.104 245.645 58.44 243.629 60.264C241.613 62.088 239.133 63 236.189 63H221.933V29.4H235.181C238.029 29.4 240.445 30.296 242.429 32.088C244.413 33.88 245.405 36.136 245.405 38.856C245.405 41.64 244.349 43.88 242.237 45.576ZM235.181 35.592H228.557V42.984H235.181C236.205 42.984 237.053 42.632 237.725 41.928C238.429 41.224 238.781 40.344 238.781 39.288C238.781 38.232 238.445 37.352 237.773 36.648C237.101 35.944 236.237 35.592 235.181 35.592ZM228.557 56.808H236.189C237.309 56.808 238.237 56.44 238.973 55.704C239.709 54.936 240.077 53.976 240.077 52.824C240.077 51.704 239.709 50.776 238.973 50.04C238.237 49.272 237.309 48.888 236.189 48.888H228.557V56.808ZM269.322 41.832V39H275.514V63H269.322V60.168C267.466 62.504 264.858 63.672 261.498 63.672C258.298 63.672 255.546 62.456 253.242 60.024C250.97 57.56 249.834 54.552 249.834 51C249.834 47.48 250.97 44.488 253.242 42.024C255.546 39.56 258.298 38.328 261.498 38.328C264.858 38.328 267.466 39.496 269.322 41.832ZM257.898 55.896C259.146 57.144 260.73 57.768 262.65 57.768C264.57 57.768 266.154 57.144 267.402 55.896C268.682 54.616 269.322 52.984 269.322 51C269.322 49.016 268.682 47.4 267.402 46.152C266.154 44.872 264.57 44.232 262.65 44.232C260.73 44.232 259.146 44.872 257.898 46.152C256.65 47.4 256.026 49.016 256.026 51C256.026 52.984 256.65 54.616 257.898 55.896ZM291.449 55.128L296.777 39H303.401L294.665 63C293.417 66.456 291.753 68.952 289.673 70.488C287.625 72.056 285.065 72.76 281.993 72.6V66.84C283.625 66.872 284.937 66.52 285.929 65.784C286.921 65.048 287.705 63.864 288.281 62.232L278.441 39H285.209L291.449 55.128Z" fill="white"/>
<path d="M122.56 84.6H135.04V86.712H124.8V107H122.56V84.6ZM148.5 94.136V91H150.612V107H148.5V103.864C147.028 106.211 144.873 107.384 142.036 107.384C139.753 107.384 137.801 106.573 136.18 104.952C134.58 103.331 133.78 101.347 133.78 99C133.78 96.6533 134.58 94.6693 136.18 93.048C137.801 91.4267 139.753 90.616 142.036 90.616C144.873 90.616 147.028 91.7893 148.5 94.136ZM137.716 103.512C138.932 104.728 140.425 105.336 142.196 105.336C143.967 105.336 145.46 104.728 146.676 103.512C147.892 102.253 148.5 100.749 148.5 99C148.5 97.2293 147.892 95.736 146.676 94.52C145.46 93.2827 143.967 92.664 142.196 92.664C140.425 92.664 138.932 93.2827 137.716 94.52C136.5 95.736 135.892 97.2293 135.892 99C135.892 100.749 136.5 102.253 137.716 103.512ZM165.26 98.776C167.009 99.416 167.884 100.664 167.884 102.52C167.884 103.843 167.436 104.92 166.54 105.752C165.665 106.584 164.438 107 162.86 107H155.084V91H162.22C163.756 91 164.95 91.3947 165.804 92.184C166.678 92.9733 167.116 94.008 167.116 95.288C167.116 96.888 166.497 98.0507 165.26 98.776ZM162.22 93.048H157.196V97.912H162.22C164.076 97.912 165.004 97.08 165.004 95.416C165.004 94.6693 164.758 94.0933 164.268 93.688C163.798 93.2613 163.116 93.048 162.22 93.048ZM157.196 104.952H162.86C163.798 104.952 164.513 104.728 165.004 104.28C165.516 103.832 165.772 103.203 165.772 102.392C165.772 101.624 165.516 101.027 165.004 100.6C164.513 100.173 163.798 99.96 162.86 99.96H157.196V104.952ZM184.844 94.136V91H186.956V107H184.844V103.864C183.372 106.211 181.217 107.384 178.38 107.384C176.097 107.384 174.145 106.573 172.524 104.952C170.924 103.331 170.124 101.347 170.124 99C170.124 96.6533 170.924 94.6693 172.524 93.048C174.145 91.4267 176.097 90.616 178.38 90.616C181.217 90.616 183.372 91.7893 184.844 94.136ZM174.06 103.512C175.276 104.728 176.769 105.336 178.54 105.336C180.31 105.336 181.804 104.728 183.02 103.512C184.236 102.253 184.844 100.749 184.844 99C184.844 97.2293 184.236 95.736 183.02 94.52C181.804 93.2827 180.31 92.664 178.54 92.664C176.769 92.664 175.276 93.2827 174.06 94.52C172.844 95.736 172.236 97.2293 172.236 99C172.236 100.749 172.844 102.253 174.06 103.512ZM202.756 97.976V91H204.868V107H202.756V100.024H193.54V107H191.428V91H193.54V97.976H202.756ZM211.446 97.08H215.83C217.302 97.08 218.56 97.5493 219.606 98.488C220.651 99.4053 221.174 100.589 221.174 102.04C221.174 103.512 220.651 104.707 219.606 105.624C218.603 106.541 217.344 107 215.83 107H209.334V91H211.446V97.08ZM211.446 104.952H215.83C216.747 104.952 217.515 104.685 218.134 104.152C218.752 103.597 219.062 102.893 219.062 102.04C219.062 101.187 218.752 100.493 218.134 99.96C217.515 99.4053 216.747 99.128 215.83 99.128H211.446V104.952ZM245.805 91V104.952H248.045V111.288H245.933V107H232.877V111.288H230.765V104.952H232.717C233.805 103.501 234.349 101.485 234.349 98.904V91H245.805ZM235.277 104.952H243.693V93.048H236.461V98.904C236.461 101.379 236.066 103.395 235.277 104.952ZM252.904 91H264.36V107H262.248V93.048H255.016V100.184C255.016 102.851 254.504 104.685 253.48 105.688C252.477 106.691 251.091 107.128 249.32 107V105.016C250.557 105.144 251.464 104.845 252.04 104.12C252.616 103.395 252.904 102.083 252.904 100.184V91ZM273.858 91H280.354V107H278.242V100.856H275.49L270.562 107H267.874L272.93 100.792C271.628 100.6 270.562 100.067 269.73 99.192C268.919 98.296 268.514 97.2187 268.514 95.96C268.514 94.5307 269.026 93.3467 270.05 92.408C271.116 91.4693 272.386 91 273.858 91ZM273.858 98.872H278.242V93.048H273.858C272.94 93.048 272.172 93.3253 271.554 93.88C270.935 94.4133 270.626 95.1067 270.626 95.96C270.626 96.8133 270.935 97.5173 271.554 98.072C272.172 98.6053 272.94 98.872 273.858 98.872ZM293.154 107V84.6H295.394V107H293.154ZM298.609 84.6H314.609V86.712H307.729V107H305.489V86.712H298.609V84.6ZM327.736 98.136H316.216V96.088H327.736V98.136ZM339.977 107.384C337.567 107.384 335.561 106.584 333.961 104.984C332.361 103.341 331.561 101.347 331.561 99C331.561 96.632 332.361 94.648 333.961 93.048C335.561 91.4267 337.567 90.616 339.977 90.616C341.556 90.616 342.975 91 344.233 91.768C345.492 92.5147 346.409 93.528 346.985 94.808L345.257 95.8C344.831 94.84 344.137 94.0827 343.177 93.528C342.239 92.952 341.172 92.664 339.977 92.664C338.207 92.664 336.713 93.2827 335.497 94.52C334.281 95.736 333.673 97.2293 333.673 99C333.673 100.749 334.281 102.253 335.497 103.512C336.713 104.728 338.207 105.336 339.977 105.336C341.151 105.336 342.207 105.059 343.145 104.504C344.105 103.949 344.852 103.181 345.385 102.2L347.145 103.224C346.484 104.504 345.513 105.517 344.233 106.264C342.953 107.011 341.535 107.384 339.977 107.384ZM350.178 91H363.618V107H361.506V93.048H352.29V107H350.178V91ZM375.476 90.616C377.865 90.616 379.774 91.4587 381.204 93.144C382.676 94.808 383.412 96.7813 383.412 99.064C383.412 99.1707 383.39 99.5013 383.348 100.056H369.3C369.513 101.656 370.196 102.936 371.348 103.896C372.5 104.856 373.94 105.336 375.668 105.336C378.1 105.336 379.817 104.429 380.82 102.616L382.676 103.704C381.972 104.856 381.001 105.763 379.764 106.424C378.548 107.064 377.172 107.384 375.636 107.384C373.118 107.384 371.07 106.595 369.492 105.016C367.913 103.437 367.124 101.432 367.124 99C367.124 96.5893 367.902 94.5947 369.46 93.016C371.017 91.416 373.022 90.616 375.476 90.616ZM375.476 92.664C373.812 92.664 372.414 93.1547 371.284 94.136C370.174 95.1173 369.513 96.408 369.3 98.008H381.236C381.001 96.3013 380.35 94.9893 379.284 94.072C378.174 93.1333 376.905 92.664 375.476 92.664ZM399.891 91V104.952H402.451V111.288H400.339V107H386.771V91H388.883V104.952H397.779V91H399.891ZM407.758 103.32L417.294 91H419.086V107H416.974V94.68L407.438 107H405.646V91H407.758V103.32ZM437.312 94.136V91H439.425V107H437.312V103.864C435.841 106.211 433.686 107.384 430.849 107.384C428.566 107.384 426.614 106.573 424.993 104.952C423.393 103.331 422.593 101.347 422.593 99C422.593 96.6533 423.393 94.6693 424.993 93.048C426.614 91.4267 428.566 90.616 430.849 90.616C433.686 90.616 435.841 91.7893 437.312 94.136ZM426.529 103.512C427.745 104.728 429.238 105.336 431.009 105.336C432.779 105.336 434.273 104.728 435.489 103.512C436.705 102.253 437.312 100.749 437.312 99C437.312 97.2293 436.705 95.736 435.489 94.52C434.273 93.2827 432.779 92.664 431.009 92.664C429.238 92.664 427.745 93.2827 426.529 94.52C425.313 95.736 424.705 97.2293 424.705 99C424.705 100.749 425.313 102.253 426.529 103.512ZM445.56 91H457.016V107H454.904V93.048H447.672V100.184C447.672 102.851 447.16 104.685 446.136 105.688C445.134 106.691 443.747 107.128 441.976 107V105.016C443.214 105.144 444.12 104.845 444.696 104.12C445.272 103.395 445.56 102.083 445.56 100.184V91ZM463.602 103.32L473.138 91H474.93V107H472.818V94.68L463.282 107H461.49V91H463.602V103.32ZM486.852 107.384C484.442 107.384 482.436 106.584 480.836 104.984C479.236 103.341 478.436 101.347 478.436 99C478.436 96.632 479.236 94.648 480.836 93.048C482.436 91.4267 484.442 90.616 486.852 90.616C488.431 90.616 489.85 91 491.108 91.768C492.367 92.5147 493.284 93.528 493.86 94.808L492.132 95.8C491.706 94.84 491.012 94.0827 490.052 93.528C489.114 92.952 488.047 92.664 486.852 92.664C485.082 92.664 483.588 93.2827 482.372 94.52C481.156 95.736 480.548 97.2293 480.548 99C480.548 100.749 481.156 102.253 482.372 103.512C483.588 104.728 485.082 105.336 486.852 105.336C488.026 105.336 489.082 105.059 490.02 104.504C490.98 103.949 491.727 103.181 492.26 102.2L494.02 103.224C493.359 104.504 492.388 105.517 491.108 106.264C489.828 107.011 488.41 107.384 486.852 107.384ZM494.82 91H508.26V93.048H502.596V107H500.484V93.048H494.82V91ZM523.617 104.984C521.974 106.584 519.99 107.384 517.665 107.384C515.297 107.384 513.302 106.584 511.681 104.984C510.059 103.363 509.249 101.368 509.249 99C509.249 96.632 510.059 94.648 511.681 93.048C513.302 91.4267 515.297 90.616 517.665 90.616C520.011 90.616 521.995 91.4267 523.617 93.048C525.259 94.648 526.081 96.632 526.081 99C526.081 101.347 525.259 103.341 523.617 104.984ZM513.185 103.512C514.401 104.728 515.894 105.336 517.665 105.336C519.435 105.336 520.929 104.728 522.145 103.512C523.361 102.253 523.969 100.749 523.969 99C523.969 97.2293 523.361 95.736 522.145 94.52C520.929 93.2827 519.435 92.664 517.665 92.664C515.894 92.664 514.401 93.2827 513.185 94.52C511.969 95.736 511.361 97.2293 511.361 99C511.361 100.749 511.969 102.253 513.185 103.512ZM539.791 98.776C541.54 99.416 542.415 100.664 542.415 102.52C542.415 103.843 541.967 104.92 541.071 105.752C540.196 106.584 538.97 107 537.391 107H529.615V91H536.751C538.287 91 539.482 91.3947 540.335 92.184C541.21 92.9733 541.647 94.008 541.647 95.288C541.647 96.888 541.028 98.0507 539.791 98.776ZM536.751 93.048H531.727V97.912H536.751C538.607 97.912 539.535 97.08 539.535 95.416C539.535 94.6693 539.29 94.0933 538.799 93.688C538.33 93.2613 537.647 93.048 536.751 93.048ZM531.727 104.952H537.391C538.33 104.952 539.044 104.728 539.535 104.28C540.047 103.832 540.303 103.203 540.303 102.392C540.303 101.624 540.047 101.027 539.535 100.6C539.044 100.173 538.33 99.96 537.391 99.96H531.727V104.952Z" fill="white"/>
</g>
<defs>
<linearGradient id="paint0_linear_19_9638" x1="30" y1="31.8332" x2="101.88" y2="90.6466" gradientUnits="userSpaceOnUse">
<stop stop-color="#4EA2EA"/>
<stop offset="0.245" stop-color="#484DFF"/>
<stop offset="0.484" stop-color="#CD0EF3"/>
<stop offset="0.724" stop-color="#F640BB"/>
<stop offset="0.95" stop-color="#FB6D64"/>
</linearGradient>
<linearGradient id="paint1_linear_19_9638" x1="30" y1="31.8332" x2="101.88" y2="90.6466" gradientUnits="userSpaceOnUse">
<stop stop-color="#4EA2EA"/>
<stop offset="0.245" stop-color="#484DFF"/>
<stop offset="0.484" stop-color="#CD0EF3"/>
<stop offset="0.724" stop-color="#F640BB"/>
<stop offset="0.95" stop-color="#FB6D64"/>
</linearGradient>
<clipPath id="clip0_19_9638">
<rect width="424" height="97" fill="white" transform="translate(120 20)"/>
</clipPath>
</defs>
</svg>
